<?xml version="1.0" standalone="no"?>
<!DOCTYPE svg PUBLIC "-//W3C//DTD SVG 20010904//EN"
 "http://www.w3.org/TR/2001/REC-SVG-20010904/DTD/svg10.dtd">
<svg version="1.0" xmlns="http://www.w3.org/2000/svg"
 width="700.000000pt" height="700.000000pt" viewBox="0 0 700.000000 700.000000"
 preserveAspectRatio="xMidYMid meet">
<metadata>
Created by potrace 1.11, written by Peter Selinger 2001-2013
</metadata>
<g transform="translate(0.000000,700.000000) scale(0.100000,-0.100000)"
fill="#000000" stroke="none">
<path d="M583 5983 c0 -143 2 -163 16 -163 21 -1 5711 -1 5773 0 l46 0 -1 163
-2 162 -2916 1 -2917 0 1 -163z"/>
<path d="M6065 5160 l-41 -5 1 -245 0 -245 195 0 195 0 1 248 1 247 -31 1
c-202 3 -288 3 -321 -1z"/>
<path d="M590 5090 c-4 -3 -7 -720 -6 -1595 l1 -1590 205 -1 c113 0 210 1 215
3 7 2 10 264 10 759 0 415 2 757 6 759 3 2 348 -339 766 -758 l760 -762 281 0
c154 0 278 4 275 8 -3 5 -382 387 -842 849 -460 462 -837 841 -839 842 -2 3
67 71 148 146 15 14 67 63 117 110 49 47 155 146 234 220 79 74 172 162 207
195 36 33 79 74 96 90 18 17 102 95 186 175 84 80 161 152 170 160 16 14 180
167 347 325 l74 70 -273 0 c-227 0 -277 -3 -294 -15 -12 -8 -84 -74 -160 -146
-189 -179 -402 -380 -525 -496 -25 -23 -104 -98 -175 -164 -71 -67 -147 -139
-169 -159 -96 -90 -226 -213 -295 -279 -41 -40 -80 -75 -85 -78 -7 -4 -10 207
-10 650 1 362 -1 664 -3 672 -3 13 -33 15 -209 15 -112 0 -208 -2 -213 -5z"/>
<path d="M4568 4355 c-2 -2 -37 -5 -78 -8 -264 -20 -507 -158 -635 -360 -17
-26 -32 -47 -35 -47 -3 0 -5 80 -5 177 l0 178 -197 1 -198 2 0 -1197 0 -1196
198 0 197 0 1 670 c1 855 4 879 101 1083 84 178 233 292 430 331 141 28 312
14 425 -33 21 -9 41 -15 45 -14 3 2 6 44 6 93 -1 50 -1 138 -2 198 -1 59 -4
106 -8 105 -5 -1 -33 2 -63 6 -57 8 -178 15 -182 11z"/>
<path d="M6025 3040 c0 -889 3 -1193 12 -1198 8 -5 304 -8 369 -3 9 1 11 318
12 1196 l0 1195 -197 0 -196 0 0 -1190z"/>
<path d="M4898 2437 c-3 -7 -4 -129 -4 -272 l1 -260 223 0 c122 0 223 2 223 5
4 15 4 517 1 527 -6 18 -438 17 -444 0z"/>
<path d="M649 1182 l-67 -3 1 -163 0 -162 2918 0 2917 0 0 163 0 163 -47 0
c-331 3 -5674 4 -5722 2z"/>
</g>
</svg>
